<svg xmlns="http://www.w3.org/2000/svg" viewBox="0 0 1600 420"><defs><linearGradient id="b" x2="1"><stop stop-color="#04151c"/><stop offset=".55" stop-color="#0a3947"/><stop offset="1" stop-color="#061820"/></linearGradient></defs><rect width="1600" height="420" fill="url(#b)"/><g stroke="#7ceaff" opacity=".11" fill="none" stroke-width="3"><path d="M0 80h1600M0 210h1600M0 340h1600"/><path d="M120 0v420M330 0v420M540 0v420M750 0v420M960 0v420M1170 0v420M1380 0v420"/><circle cx="1280" cy="105" r="40"/><path d="M1120 80l-28 28m0-28l28 28m180 120q110-30 160-150" stroke-dasharray="12 10"/></g><text x="90" y="175" fill="#f4fbfd" font-family="Arial" font-size="78" font-weight="900" font-style="italic">SIDELINE<tspan fill="#00d4ff">IQ</tspan></text><text x="96" y="230" fill="#8eeeff" font-family="Arial" font-size="25" font-weight="700" letter-spacing="7">FIND YOUR EDGE.</text><text x="96" y="310" fill="#b9ced7" font-family="Arial" font-size="28">Football intelligence built for the sideline.</text><g transform="translate(1120 125) rotate(-12)"><path d="M0 70Q115-115 230 70Q115 255 0 70" fill="#75421f" stroke="#e5f1f4" stroke-width="6"/><path d="M92 23v94m-27-47h56m-44-24h32m-32 48h32" stroke="#fff" stroke-width="6"/></g></svg>